# Exported from Wings 3D 2.2.9
mtllib untitled.mtl
o Cube1
#16 vertices, 14 faces
v -1.33906464 1.00000000 -1.00000000
v -1.33906464 -1.00000000 -1.00000000
v -1.33906464 1.00000000 1.00000000
v -1.33906464 -1.00000000 1.00000000
v 1.00000000 1.00000000 -1.00000000
v 1.00000000 -1.00000000 -1.00000000
v 1.00000000 1.00000000 1.00000000
v 1.00000000 -1.00000000 1.00000000
v -1.16906464 0.83000000 0.99800000
v -1.16906464 -0.83000000 0.99800000
v 0.83000000 -0.83000000 0.99800000
v 0.83000000 0.83000000 0.99800000
v -1.16906464 0.83000000 -0.81243179
v -1.16906464 -0.83000000 -0.81243179
v 0.83000000 -0.83000000 -0.81243179
v 0.83000000 0.83000000 -0.81243179
vn -0.57735027 0.57735027 -0.57735027
vn -0.57735027 -0.57735027 -0.57735027
vn -0.40504652 0.40504652 0.81967960
vn -0.40504652 -0.40504652 0.81967960
vn 0.57735027 0.57735027 -0.57735027
vn 0.57735027 -0.57735027 -0.57735027
vn 0.40504652 0.40504652 0.81967960
vn 0.40504652 -0.40504652 0.81967960
vn 0.41145007 -0.41145007 0.81327590
vn 0.41145007 0.41145007 0.81327590
vn -0.41145007 0.41145007 0.81327590
vn -0.41145007 -0.41145007 0.81327590
vn 0.57735027 -0.57735027 0.57735027
vn 0.57735027 0.57735027 0.57735027
vn -0.57735027 0.57735027 0.57735027
vn -0.57735027 -0.57735027 0.57735027
g Cube1_default
usemtl default
s 1
f 1//1 5//5 6//6 2//2
f 2//2 4//4 3//3 1//1
f 2//2 6//6 8//8 4//4
f 3//3 7//7 5//5 1//1
f 3//3 9//9 12//12 7//7
f 4//4 10//10 9//9 3//3
f 5//5 7//7 8//8 6//6
f 7//7 12//12 11//11 8//8
f 8//8 11//11 10//10 4//4
f 9//9 13//13 16//16 12//12
f 10//10 14//14 13//13 9//9
f 11//11 15//15 14//14 10//10
f 12//12 16//16 15//15 11//11
f 14//14 15//15 16//16 13//13
