# Blender 4.4.0
# www.blender.org
mtllib Meat.mtl
o Cube
v -0.155554 0.129467 0.624739
v -0.155554 0.231721 0.624739
v -0.155554 0.251853 0.139703
v -0.155554 0.361502 0.139703
v 0.315496 0.022911 0.639349
v 0.405741 0.183198 0.700998
v 0.302657 0.134374 0.139703
v 0.296927 0.298918 0.139703
vn -1.0000 -0.0000 -0.0000
vn -0.0000 -0.0000 -1.0000
vn 0.9626 -0.2205 -0.1576
vn -0.1143 -0.1897 0.9752
vn -0.2252 -0.9486 -0.2223
vn 0.0900 0.9716 0.2186
vt 0.375000 0.000000
vt 0.625000 0.000000
vt 0.625000 0.250000
vt 0.375000 0.250000
vt 0.625000 0.500000
vt 0.375000 0.500000
vt 0.625000 0.750000
vt 0.375000 0.750000
vt 0.625000 1.000000
vt 0.375000 1.000000
vt 0.125000 0.500000
vt 0.125000 0.750000
vt 0.875000 0.500000
vt 0.875000 0.750000
s 0
usemtl Material.003
f 1/1/1 2/2/1 4/3/1 3/4/1
f 3/4/2 4/3/2 8/5/2 7/6/2
f 7/6/3 8/5/3 6/7/3 5/8/3
f 5/8/4 6/7/4 2/9/4 1/10/4
f 3/11/5 7/6/5 5/8/5 1/12/5
f 8/5/6 4/13/6 2/14/6 6/7/6
o Cube.001
v 0.637773 0.129467 0.172342
v 0.637773 0.231721 0.172342
v 0.154208 0.251853 0.210087
v 0.154208 0.361502 0.210087
v 0.615681 0.022911 -0.298416
v 0.670121 0.183198 -0.393185
v 0.118550 0.134374 -0.246734
v 0.118996 0.298918 -0.241021
vn 0.0778 -0.0000 0.9970
vn -0.9970 -0.0000 0.0778
vn -0.2320 -0.2205 -0.9474
vn 0.9811 -0.1897 0.0381
vn -0.2041 -0.9486 0.2418
vn 0.2109 0.9716 -0.1068
vt 0.375000 0.000000
vt 0.625000 0.000000
vt 0.625000 0.250000
vt 0.375000 0.250000
vt 0.625000 0.500000
vt 0.375000 0.500000
vt 0.625000 0.750000
vt 0.375000 0.750000
vt 0.625000 1.000000
vt 0.375000 1.000000
vt 0.125000 0.500000
vt 0.125000 0.750000
vt 0.875000 0.500000
vt 0.875000 0.750000
s 0
usemtl Material.004
f 9/15/7 10/16/7 12/17/7 11/18/7
f 11/18/8 12/17/8 16/19/8 15/20/8
f 15/20/9 16/19/9 14/21/9 13/22/9
f 13/22/10 14/21/10 10/23/10 9/24/10
f 11/25/11 15/20/11 13/22/11 9/26/11
f 16/19/12 12/27/12 10/28/12 14/21/12
o Cube.002
v 0.090896 0.157521 -0.197157
v 0.122145 0.071317 -0.151900
v 0.584175 0.219979 -0.142276
v 0.617685 0.127540 -0.093747
v 0.116378 0.046628 -0.666740
v 0.121171 -0.147054 -0.676815
v 0.618095 0.128618 -0.605159
v 0.667508 -0.007718 -0.527196
vn -0.1524 0.4155 0.8967
vn 0.9399 0.3415 0.0015
vn 0.2274 -0.1602 -0.9605
vn -0.9919 -0.1256 0.0171
vn -0.1152 0.9692 -0.2176
vn 0.1052 -0.9312 0.3490
vt 0.375000 0.000000
vt 0.625000 0.000000
vt 0.625000 0.250000
vt 0.375000 0.250000
vt 0.625000 0.500000
vt 0.375000 0.500000
vt 0.625000 0.750000
vt 0.375000 0.750000
vt 0.625000 1.000000
vt 0.375000 1.000000
vt 0.125000 0.500000
vt 0.125000 0.750000
vt 0.875000 0.500000
vt 0.875000 0.750000
s 0
usemtl Material.005
f 17/29/13 18/30/13 20/31/13 19/32/13
f 19/32/14 20/31/14 24/33/14 23/34/14
f 23/34/15 24/33/15 22/35/15 21/36/15
f 21/36/16 22/35/16 18/37/16 17/38/16
f 19/39/17 23/34/17 21/36/17 17/40/17
f 24/33/18 20/41/18 18/42/18 22/35/18
o Cube.003
v 0.160112 0.100502 0.157462
v 0.168478 0.055434 0.066058
v 0.150580 0.480525 -0.167698
v 0.159550 0.432198 -0.265713
v -0.317103 0.100285 0.233098
v -0.391375 -0.032055 0.112239
v -0.315332 0.499123 -0.088086
v -0.296165 0.427016 -0.234853
v 0.160112 0.100502 0.157462
vn 0.9958 0.0724 0.0554
vn -0.0403 0.8947 -0.4448
vn -0.9829 0.1685 0.0737
vn 0.1376 -0.7806 0.6097
vn 0.1377 0.6333 0.7615
vn -0.0014 -0.6304 -0.7763
vt 0.375000 0.000000
vt 0.625000 0.000000
vt 0.625000 0.250000
vt 0.375000 0.250000
vt 0.625000 0.500000
vt 0.375000 0.500000
vt 0.625000 0.750000
vt 0.375000 0.750000
vt 0.625000 1.000000
vt 0.375000 1.000000
vt 0.125000 0.500000
vt 0.125000 0.750000
vt 0.875000 0.500000
vt 0.875000 0.750000
s 0
usemtl Material.006
f 25/43/19 26/44/19 28/45/19 27/46/19
f 27/46/20 28/45/20 32/47/20 31/48/20
f 31/48/21 32/47/21 30/49/21 29/50/21
f 29/50/22 30/49/22 26/51/22 33/52/22
f 27/53/23 31/48/23 29/50/23 33/54/23
f 32/47/24 28/55/24 26/56/24 30/49/24
o Cube.004
v -0.632452 0.073587 0.390052
v -0.628585 -0.026955 0.408276
v -0.284917 0.027157 0.746846
v -0.280770 -0.080658 0.766388
v -0.314141 0.129086 0.030812
v -0.287930 -0.046927 -0.046451
v 0.034242 0.096903 0.404748
v 0.036418 -0.064314 0.438089
vn -0.7062 0.0999 0.7009
vn 0.7070 0.1524 0.6906
vn 0.7829 0.1447 -0.6051
vn -0.7773 0.0493 -0.6272
vn -0.0377 0.9891 0.1423
vn -0.0542 -0.9977 -0.0409
vt 0.375000 0.000000
vt 0.625000 0.000000
vt 0.625000 0.250000
vt 0.375000 0.250000
vt 0.625000 0.500000
vt 0.375000 0.500000
vt 0.625000 0.750000
vt 0.375000 0.750000
vt 0.625000 1.000000
vt 0.375000 1.000000
vt 0.125000 0.500000
vt 0.125000 0.750000
vt 0.875000 0.500000
vt 0.875000 0.750000
s 0
usemtl Material.007
f 34/57/25 35/58/25 37/59/25 36/60/25
f 36/60/26 37/59/26 41/61/26 40/62/26
f 40/62/27 41/61/27 39/63/27 38/64/27
f 38/64/28 39/63/28 35/65/28 34/66/28
f 36/67/29 40/62/29 38/64/29 34/68/29
f 41/61/30 37/69/30 35/70/30 39/63/30
o Cube.005
v -0.007965 0.136978 0.075162
v -0.026074 0.233790 0.047681
v -0.405395 0.106119 -0.227055
v -0.424814 0.209934 -0.256523
v 0.308163 -0.011240 -0.258830
v 0.382318 0.149255 -0.338702
v -0.106445 -0.055448 -0.556119
v -0.139062 0.100970 -0.595829
vn -0.6070 0.1099 0.7871
vn -0.7747 -0.3025 -0.5553
vn 0.5013 -0.3622 -0.7858
vn 0.7196 0.1280 0.6824
vn -0.1410 -0.9407 0.3087
vn 0.0519 0.9762 -0.2106
vt 0.375000 0.000000
vt 0.625000 0.000000
vt 0.625000 0.250000
vt 0.375000 0.250000
vt 0.625000 0.500000
vt 0.375000 0.500000
vt 0.625000 0.750000
vt 0.375000 0.750000
vt 0.625000 1.000000
vt 0.375000 1.000000
vt 0.125000 0.500000
vt 0.125000 0.750000
vt 0.875000 0.500000
vt 0.875000 0.750000
s 0
usemtl Material.008
f 42/71/31 43/72/31 45/73/31 44/74/31
f 44/74/32 45/73/32 49/75/32 48/76/32
f 48/76/33 49/75/33 47/77/33 46/78/33
f 46/78/34 47/77/34 43/79/34 42/80/34
f 44/81/35 48/76/35 46/78/35 42/82/35
f 49/75/36 45/83/36 43/84/36 47/77/36
o Cube.006
v 0.211943 0.197925 0.490996
v 0.179392 0.102093 0.505572
v 0.576090 -0.015516 0.759469
v 0.541185 -0.118279 0.775099
v 0.448531 0.167351 0.070821
v 0.387423 0.004120 -0.014377
v 0.822442 -0.035192 0.356130
v 0.767449 -0.187779 0.384420
vn -0.4560 0.2832 0.8437
vn 0.8311 -0.2036 0.5175
vn 0.6401 -0.0980 -0.7620
vn -0.8022 0.4087 -0.4353
vn 0.3841 0.9075 0.1699
vn -0.4499 -0.8916 -0.0506
vt 0.375000 0.000000
vt 0.625000 0.000000
vt 0.625000 0.250000
vt 0.375000 0.250000
vt 0.625000 0.500000
vt 0.375000 0.500000
vt 0.625000 0.750000
vt 0.375000 0.750000
vt 0.625000 1.000000
vt 0.375000 1.000000
vt 0.125000 0.500000
vt 0.125000 0.750000
vt 0.875000 0.500000
vt 0.875000 0.750000
s 0
usemtl Material.009
f 50/85/37 51/86/37 53/87/37 52/88/37
f 52/88/38 53/87/38 57/89/38 56/90/38
f 56/90/39 57/89/39 55/91/39 54/92/39
f 54/92/40 55/91/40 51/93/40 50/94/40
f 52/95/41 56/90/41 54/92/41 50/96/41
f 57/89/42 53/97/42 51/98/42 55/91/42
o Cube.007
v -0.363456 -0.023181 -0.396393
v -0.350559 0.076672 -0.378534
v -0.157369 -0.005941 0.059094
v -0.143539 0.101133 0.078246
v -0.811680 -0.103316 -0.234748
v -0.897892 0.070199 -0.224890
v -0.589534 -0.100390 0.226638
v -0.563561 0.060036 0.253026
vn 0.9108 -0.0442 -0.4104
vn 0.3931 -0.2109 0.8950
vn -0.8426 -0.2060 0.4976
vn -0.3031 0.0153 -0.9528
vn 0.1729 -0.9832 -0.0591
vn -0.0454 0.9989 0.0110
vt 0.375000 0.000000
vt 0.625000 0.000000
vt 0.625000 0.250000
vt 0.375000 0.250000
vt 0.625000 0.500000
vt 0.375000 0.500000
vt 0.625000 0.750000
vt 0.375000 0.750000
vt 0.625000 1.000000
vt 0.375000 1.000000
vt 0.125000 0.500000
vt 0.125000 0.750000
vt 0.875000 0.500000
vt 0.875000 0.750000
s 0
usemtl Material.010
f 58/99/43 59/100/43 61/101/43 60/102/43
f 60/102/44 61/101/44 65/103/44 64/104/44
f 64/104/45 65/103/45 63/105/45 62/106/45
f 62/106/46 63/105/46 59/107/46 58/108/46
f 60/109/47 64/104/47 62/106/47 58/110/47
f 65/103/48 61/111/48 59/112/48 63/105/48
o Cube.008
v -0.032449 0.081960 -0.833731
v -0.038128 -0.018214 -0.853447
v -0.522352 -0.018108 -0.818922
v -0.528442 -0.125528 -0.840064
v 0.020847 0.093218 -0.353639
v 0.079638 -0.084058 -0.301163
v -0.483896 0.006969 -0.348125
v -0.493433 -0.153102 -0.385455
vn -0.0697 0.1964 -0.9780
vn -0.9960 0.0409 0.0792
vn -0.0776 0.0334 0.9964
vn 0.9739 0.1684 -0.1525
vn -0.1845 0.9826 -0.0197
vn 0.1701 -0.9785 -0.1166
vt 0.375000 0.000000
vt 0.625000 0.000000
vt 0.625000 0.250000
vt 0.375000 0.250000
vt 0.625000 0.500000
vt 0.375000 0.500000
vt 0.625000 0.750000
vt 0.375000 0.750000
vt 0.625000 1.000000
vt 0.375000 1.000000
vt 0.125000 0.500000
vt 0.125000 0.750000
vt 0.875000 0.500000
vt 0.875000 0.750000
s 0
usemtl Material.011
f 66/113/49 67/114/49 69/115/49 68/116/49
f 68/116/50 69/115/50 73/117/50 72/118/50
f 72/118/51 73/117/51 71/119/51 70/120/51
f 70/120/52 71/119/52 67/121/52 66/122/52
f 68/123/53 72/118/53 70/120/53 66/124/53
f 73/117/54 69/125/54 67/126/54 71/119/54
