# Blender 4.4.0
# www.blender.org
mtllib Tomato.mtl
o Cylinder
v -0.185784 -0.067330 -0.793220
v -0.185784 0.109684 -0.793220
v 0.109134 -0.067330 -0.730533
v 0.109134 0.109684 -0.730533
v 0.353059 -0.067330 -0.553312
v 0.353059 0.109684 -0.553312
v 0.503812 -0.067330 -0.292199
v 0.503812 0.109684 -0.292199
v 0.535328 -0.067330 0.007656
v 0.535328 0.109684 0.007656
v 0.442158 -0.067330 0.294407
v 0.442158 0.109684 0.294407
v 0.240410 -0.067330 0.518470
v 0.240410 0.109684 0.518470
v -0.035031 -0.067330 0.641104
v -0.035031 0.109684 0.641104
v -0.336538 -0.067330 0.641104
v -0.336538 0.109684 0.641104
v -0.611978 -0.067330 0.518470
v -0.611978 0.109684 0.518470
v -0.813726 -0.067330 0.294407
v -0.813726 0.109684 0.294407
v -0.906897 -0.067330 0.007656
v -0.906897 0.109684 0.007656
v -0.875381 -0.067330 -0.292199
v -0.875381 0.109684 -0.292199
v -0.724627 -0.067330 -0.553312
v -0.724627 0.109684 -0.553312
v -0.480703 -0.067330 -0.730533
v -0.480703 0.109684 -0.730533
v -0.185784 0.109684 -0.068136
v -0.185784 -0.067330 -0.068136
vn 0.2079 -0.0000 -0.9781
vn 0.5878 -0.0000 -0.8090
vn 0.8660 -0.0000 -0.5000
vn 0.9945 -0.0000 -0.1045
vn 0.9511 -0.0000 0.3090
vn 0.7431 -0.0000 0.6691
vn 0.4067 -0.0000 0.9135
vn -0.0000 -0.0000 1.0000
vn -0.4067 -0.0000 0.9135
vn -0.7431 -0.0000 0.6691
vn -0.9511 -0.0000 0.3090
vn -0.9945 -0.0000 -0.1045
vn -0.8660 -0.0000 -0.5000
vn -0.5878 -0.0000 -0.8090
vn -0.2079 -0.0000 -0.9781
vn -0.0000 1.0000 -0.0000
vn -0.0000 -1.0000 -0.0000
vt 1.000000 0.500000
vt 1.000000 1.000000
vt 0.933333 1.000000
vt 0.933333 0.500000
vt 0.866667 1.000000
vt 0.866667 0.500000
vt 0.800000 1.000000
vt 0.800000 0.500000
vt 0.733333 1.000000
vt 0.733333 0.500000
vt 0.666667 1.000000
vt 0.666667 0.500000
vt 0.600000 1.000000
vt 0.600000 0.500000
vt 0.533333 1.000000
vt 0.533333 0.500000
vt 0.466667 1.000000
vt 0.466667 0.500000
vt 0.400000 1.000000
vt 0.400000 0.500000
vt 0.333333 1.000000
vt 0.333333 0.500000
vt 0.266667 1.000000
vt 0.266667 0.500000
vt 0.200000 1.000000
vt 0.200000 0.500000
vt 0.133333 1.000000
vt 0.133333 0.500000
vt 0.066667 1.000000
vt 0.066667 0.500000
vt 0.000000 1.000000
vt 0.000000 0.500000
vt 0.347617 0.469251
vt 0.250000 0.490000
vt 0.250000 0.250000
vt 0.152383 0.469251
vt 0.071645 0.410591
vt 0.021746 0.324164
vt 0.011315 0.224913
vt 0.042154 0.130000
vt 0.108932 0.055836
vt 0.200101 0.015245
vt 0.299899 0.015245
vt 0.391068 0.055836
vt 0.457846 0.130000
vt 0.488685 0.224913
vt 0.478254 0.324164
vt 0.428355 0.410591
vt 0.750000 0.490000
vt 0.847617 0.469251
vt 0.750000 0.250000
vt 0.928355 0.410591
vt 0.978254 0.324164
vt 0.988685 0.224913
vt 0.957846 0.130000
vt 0.891068 0.055836
vt 0.799899 0.015245
vt 0.700101 0.015245
vt 0.608932 0.055836
vt 0.542154 0.130000
vt 0.511315 0.224913
vt 0.521746 0.324164
vt 0.571645 0.410591
vt 0.652383 0.469251
s 0
usemtl Onion
f 1/1/1 2/2/1 4/3/1 3/4/1
f 3/4/2 4/3/2 6/5/2 5/6/2
f 5/6/3 6/5/3 8/7/3 7/8/3
f 7/8/4 8/7/4 10/9/4 9/10/4
f 9/10/5 10/9/5 12/11/5 11/12/5
f 11/12/6 12/11/6 14/13/6 13/14/6
f 13/14/7 14/13/7 16/15/7 15/16/7
f 15/16/8 16/15/8 18/17/8 17/18/8
f 17/18/9 18/17/9 20/19/9 19/20/9
f 19/20/10 20/19/10 22/21/10 21/22/10
f 21/22/11 22/21/11 24/23/11 23/24/11
f 23/24/12 24/23/12 26/25/12 25/26/12
f 25/26/13 26/25/13 28/27/13 27/28/13
f 27/28/14 28/27/14 30/29/14 29/30/14
f 29/30/15 30/29/15 2/31/15 1/32/15
f 4/33/16 2/34/16 31/35/16
f 2/34/16 30/36/16 31/35/16
f 30/36/16 28/37/16 31/35/16
f 28/37/16 26/38/16 31/35/16
f 26/38/16 24/39/16 31/35/16
f 24/39/16 22/40/16 31/35/16
f 22/40/16 20/41/16 31/35/16
f 20/41/16 18/42/16 31/35/16
f 18/42/16 16/43/16 31/35/16
f 16/43/16 14/44/16 31/35/16
f 14/44/16 12/45/16 31/35/16
f 12/45/16 10/46/16 31/35/16
f 10/46/16 8/47/16 31/35/16
f 8/47/16 6/48/16 31/35/16
f 6/48/16 4/33/16 31/35/16
f 1/49/17 3/50/17 32/51/17
f 3/50/17 5/52/17 32/51/17
f 5/52/17 7/53/17 32/51/17
f 7/53/17 9/54/17 32/51/17
f 9/54/17 11/55/17 32/51/17
f 11/55/17 13/56/17 32/51/17
f 13/56/17 15/57/17 32/51/17
f 15/57/17 17/58/17 32/51/17
f 17/58/17 19/59/17 32/51/17
f 19/59/17 21/60/17 32/51/17
f 21/60/17 23/61/17 32/51/17
f 23/61/17 25/62/17 32/51/17
f 25/62/17 27/63/17 32/51/17
f 27/63/17 29/64/17 32/51/17
f 29/64/17 1/49/17 32/51/17
