# Blender 4.4.0
# www.blender.org
mtllib Salad.mtl
o Plane
v -0.619322 0.047566 0.691096
v 0.785050 0.141280 0.569329
v -0.640974 0.102557 -0.911479
v 0.906242 0.136245 -0.759513
v -0.160461 0.152180 0.822777
v -0.117722 0.152125 -0.917572
v 0.299198 0.066786 0.788517
v 0.528286 0.010112 -1.035975
v -1.240541 0.096627 0.000000
v 1.322993 0.032129 -0.042876
v -0.120270 -0.117045 0.000000
v 0.439865 -0.071008 0.000000
v -0.829938 0.208809 0.341250
v 1.218101 0.047302 0.162048
v -0.151398 -0.046797 0.412736
v 0.424112 0.000000 0.369262
v 1.216346 -0.000000 -0.319538
v -0.060135 0.000000 -0.500000
v 0.469932 0.000000 -0.500000
v -1.049858 0.000000 -0.373774
v -0.619736 0.143599 0.686997
v 0.784636 0.237313 0.565230
v -0.641388 0.198590 -0.915577
v 0.905828 0.232278 -0.763611
v -0.160875 0.248213 0.818679
v -0.118136 0.248157 -0.921670
v 0.298784 0.162818 0.784418
v 0.527872 0.106145 -1.040074
v -1.240954 0.192659 -0.004098
v 1.322579 0.128162 -0.046974
v -0.120684 -0.021013 -0.004098
v 0.439451 0.025025 -0.004098
v -0.830352 0.304842 0.337152
v 1.217687 0.143335 0.157949
v -0.151811 0.049236 0.408638
v 0.423698 0.096033 0.365164
v 1.215932 0.096033 -0.323636
v -0.060549 0.096033 -0.504098
v 0.469519 0.096033 -0.504098
v -1.050272 0.096033 -0.377872
vn 0.1863 -0.9634 -0.1925
vn 0.0094 -0.9671 -0.2544
vn -0.1347 -0.9768 -0.1663
vn 0.0870 -0.9794 0.1821
vn -0.2498 -0.9049 0.3446
vn 0.1133 -0.9788 0.1707
vn 0.1921 -0.9309 0.3108
vn -0.1465 -0.9853 0.0878
vn -0.0128 -0.9528 0.3033
vn 0.0415 -0.9826 -0.1810
vn -0.1037 -0.9932 -0.0530
vn 0.0678 -0.9961 -0.0566
vn -0.1863 0.9634 0.1925
vn -0.0094 0.9671 0.2544
vn 0.1347 0.9768 0.1663
vn -0.0870 0.9794 -0.1821
vn 0.2498 0.9049 -0.3446
vn -0.1133 0.9788 -0.1707
vn -0.1921 0.9309 -0.3108
vn 0.1465 0.9853 -0.0878
vn 0.0128 0.9528 -0.3033
vn -0.0415 0.9826 0.1810
vn 0.1037 0.9932 0.0530
vn -0.0678 0.9961 0.0566
vn -0.6437 0.0299 0.7647
vn -0.8929 -0.0230 -0.4496
vn -0.0076 -0.0427 -0.9991
vn 0.6886 0.0339 0.7244
vn 0.8906 0.0232 0.4542
vn -0.2840 0.0397 0.9580
vn -0.7929 -0.0294 -0.6086
vn -0.1892 -0.0427 -0.9810
vn 0.0822 0.0428 0.9957
vn -0.8528 0.0186 0.5220
vn 0.5969 -0.0316 -0.8017
vn 0.4057 0.0407 0.9131
vn 0.9335 -0.0113 -0.3585
vn 0.8141 -0.0213 -0.5804
vt 0.230278 0.366761
vt 0.312004 0.458449
vt 0.206449 0.479540
vt 0.085655 0.465679
vt 0.441187 0.089956
vt 0.468904 0.240769
vt 0.389574 0.330078
vt 0.311290 0.276942
vt 0.171109 0.122349
vt 0.236769 0.191066
vt 0.150799 0.285714
vt 0.090142 0.226237
vt 0.284899 0.016809
vt 0.406300 0.000000
vt 0.022272 0.441311
vt 0.003496 0.392152
vt 0.037740 0.140652
vt 0.000000 0.256025
vt 0.194763 0.000000
vt 0.101519 0.057037
vt 0.707530 0.366761
vt 0.852154 0.465679
vt 0.731359 0.479540
vt 0.625804 0.458449
vt 0.496621 0.089956
vt 0.626518 0.276942
vt 0.548234 0.330078
vt 0.468904 0.240770
vt 0.766699 0.122349
vt 0.847666 0.226237
vt 0.787010 0.285714
vt 0.701039 0.191066
vt 0.652910 0.016809
vt 0.531509 0.000000
vt 0.934312 0.392152
vt 0.915537 0.441311
vt 0.900068 0.140653
vt 0.937808 0.256025
vt 0.743046 0.000000
vt 0.836289 0.057037
vt 0.055004 0.481761
vt 0.021821 0.591946
vt 0.000000 0.589724
vt 0.033182 0.479540
vt 0.937809 0.051949
vt 0.956111 0.000118
vt 0.978045 0.000000
vt 0.959742 0.051832
vt 0.978066 0.275675
vt 0.966582 0.156780
vt 0.988516 0.156662
vt 1.000000 0.275558
vt 0.076935 0.585437
vt 0.092634 0.719929
vt 0.070703 0.719572
vt 0.055004 0.585080
vt 0.093358 0.771816
vt 0.071426 0.771458
vt 0.055004 0.664615
vt 0.021930 0.771108
vt 0.000108 0.768886
vt 0.033182 0.662393
vt 0.947009 0.425206
vt 0.968943 0.425088
vt 0.031539 0.870112
vt 0.009718 0.867890
vt 0.973131 0.504654
vt 0.995064 0.504537
vt 0.097296 0.479897
vt 0.075364 0.479540
vt 0.097296 0.808088
vt 0.075364 0.807730
vt 0.937809 0.565330
vt 0.959742 0.565213
s 0
usemtl Material.001
f 19/1/1 8/2/1 4/3/1 17/4/1
f 20/5/2 3/6/2 6/7/2 18/8/2
f 18/8/3 6/7/3 8/2/3 19/1/3
f 15/9/4 11/10/4 12/11/4 16/12/4
f 13/13/5 9/14/5 11/10/5 15/9/5
f 16/12/6 12/11/6 10/15/6 14/16/6
f 7/17/7 16/12/7 14/16/7 2/18/7
f 1/19/8 13/13/8 15/9/8 5/20/8
f 5/20/9 15/9/9 16/12/9 7/17/9
f 11/10/10 18/8/10 19/1/10 12/11/10
f 9/14/11 20/5/11 18/8/11 11/10/11
f 12/11/12 19/1/12 17/4/12 10/15/12
f 39/21/13 37/22/13 24/23/13 28/24/13
f 40/25/14 38/26/14 26/27/14 23/28/14
f 38/26/15 39/21/15 28/24/15 26/27/15
f 35/29/16 36/30/16 32/31/16 31/32/16
f 33/33/17 35/29/17 31/32/17 29/34/17
f 36/30/18 34/35/18 30/36/18 32/31/18
f 27/37/19 22/38/19 34/35/19 36/30/19
f 21/39/20 25/40/20 35/29/20 33/33/20
f 25/40/21 27/37/21 36/30/21 35/29/21
f 31/32/22 32/31/22 39/21/22 38/26/22
f 29/34/23 31/32/23 38/26/23 40/25/23
f 32/31/24 30/36/24 37/22/24 39/21/24
f 9/41/25 13/42/25 33/43/25 29/44/25
f 20/45/26 9/46/26 29/47/26 40/48/26
f 6/49/27 3/50/27 23/51/27 26/52/27
f 2/53/28 14/54/28 34/55/28 22/56/28
f 14/54/29 10/57/29 30/58/29 34/55/29
f 1/59/30 5/60/30 25/61/30 21/62/30
f 3/50/31 20/45/31 40/48/31 23/51/31
f 8/63/32 6/49/32 26/52/32 28/64/32
f 5/60/33 7/65/33 27/66/33 25/61/33
f 13/42/34 1/59/34 21/62/34 33/43/34
f 4/67/35 8/63/35 28/64/35 24/68/35
f 7/69/36 2/53/36 22/56/36 27/70/36
f 10/57/37 17/71/37 37/72/37 30/58/37
f 17/73/38 4/67/38 24/68/38 37/74/38
