# Blender 4.4.0
# www.blender.org
mtllib BREAD.mtl
o Cylinder
v -0.142927 0.088281 -1.046596
v -0.142927 0.463051 -1.046596
v 0.292956 0.088281 -0.991531
v 0.292956 0.463051 -0.991531
v 0.701452 0.088281 -0.829796
v 0.701452 0.463051 -0.829796
v 1.056892 0.088281 -0.571554
v 1.056892 0.463051 -0.571554
v 1.336943 0.088281 -0.233031
v 1.336943 0.463051 -0.233031
v 1.524008 0.088281 0.164503
v 1.524008 0.463051 0.164503
v 1.606334 0.088281 0.596070
v 1.606334 0.463051 0.596070
v 1.578747 0.088281 1.034551
v 1.578747 0.463051 1.034551
v 1.442981 0.088281 1.452395
v 1.442981 0.463051 1.452395
v 1.207566 0.088281 1.823349
v 1.207566 0.463051 1.823349
v 0.887295 0.088281 2.124104
v 0.887295 0.463051 2.124104
v 0.502292 0.088281 2.335762
v 0.502292 0.463051 2.335762
v 0.076747 0.088281 2.445023
v 0.076747 0.463051 2.445023
v -0.362602 0.088281 2.445023
v -0.362602 0.463051 2.445023
v -0.788147 0.088281 2.335762
v -0.788147 0.463051 2.335762
v -1.173150 0.088281 2.124104
v -1.173150 0.463051 2.124104
v -1.493421 0.088281 1.823349
v -1.493421 0.463051 1.823349
v -1.728836 0.088281 1.452395
v -1.728836 0.463051 1.452395
v -1.864602 0.088281 1.034551
v -1.864602 0.463051 1.034551
v -1.892189 0.088281 0.596070
v -1.892189 0.463051 0.596070
v -1.809863 0.088281 0.164503
v -1.809863 0.463051 0.164503
v -1.622798 0.088281 -0.233031
v -1.622798 0.463051 -0.233031
v -1.342747 0.088281 -0.571554
v -1.342747 0.463051 -0.571554
v -0.987307 0.088281 -0.829796
v -0.987307 0.463051 -0.829796
v -0.578811 0.088281 -0.991531
v -0.578811 0.463051 -0.991531
vn 0.1253 -0.0000 -0.9921
vn 0.3681 -0.0000 -0.9298
vn 0.5878 -0.0000 -0.8090
vn 0.7705 -0.0000 -0.6374
vn 0.9048 -0.0000 -0.4258
vn 0.9823 -0.0000 -0.1874
vn 0.9980 -0.0000 0.0628
vn 0.9511 -0.0000 0.3090
vn 0.8443 -0.0000 0.5358
vn 0.6845 -0.0000 0.7290
vn 0.4818 -0.0000 0.8763
vn 0.2487 -0.0000 0.9686
vn -0.0000 -0.0000 1.0000
vn -0.2487 -0.0000 0.9686
vn -0.4818 -0.0000 0.8763
vn -0.6845 -0.0000 0.7290
vn -0.8443 -0.0000 0.5358
vn -0.9511 -0.0000 0.3090
vn -0.9980 -0.0000 0.0628
vn -0.9823 -0.0000 -0.1874
vn -0.9048 -0.0000 -0.4258
vn -0.7705 -0.0000 -0.6374
vn -0.5878 -0.0000 -0.8090
vn -0.0000 1.0000 -0.0000
vn -0.3681 -0.0000 -0.9298
vn -0.1253 -0.0000 -0.9921
vn -0.0000 -1.0000 -0.0000
vt 1.000000 0.500000
vt 1.000000 1.000000
vt 0.960000 1.000000
vt 0.960000 0.500000
vt 0.920000 1.000000
vt 0.920000 0.500000
vt 0.880000 1.000000
vt 0.880000 0.500000
vt 0.840000 1.000000
vt 0.840000 0.500000
vt 0.800000 1.000000
vt 0.800000 0.500000
vt 0.760000 1.000000
vt 0.760000 0.500000
vt 0.720000 1.000000
vt 0.720000 0.500000
vt 0.680000 1.000000
vt 0.680000 0.500000
vt 0.640000 1.000000
vt 0.640000 0.500000
vt 0.600000 1.000000
vt 0.600000 0.500000
vt 0.560000 1.000000
vt 0.560000 0.500000
vt 0.520000 1.000000
vt 0.520000 0.500000
vt 0.480000 1.000000
vt 0.480000 0.500000
vt 0.440000 1.000000
vt 0.440000 0.500000
vt 0.400000 1.000000
vt 0.400000 0.500000
vt 0.360000 1.000000
vt 0.360000 0.500000
vt 0.320000 1.000000
vt 0.320000 0.500000
vt 0.280000 1.000000
vt 0.280000 0.500000
vt 0.240000 1.000000
vt 0.240000 0.500000
vt 0.200000 1.000000
vt 0.200000 0.500000
vt 0.160000 1.000000
vt 0.160000 0.500000
vt 0.120000 1.000000
vt 0.120000 0.500000
vt 0.080000 1.000000
vt 0.080000 0.500000
vt 0.309686 0.482460
vt 0.250000 0.490000
vt 0.190314 0.482460
vt 0.134379 0.460314
vt 0.085709 0.424952
vt 0.047361 0.378598
vt 0.021746 0.324164
vt 0.010474 0.265070
vt 0.014251 0.205028
vt 0.032842 0.147813
vt 0.065077 0.097018
vt 0.108932 0.055836
vt 0.161650 0.026854
vt 0.219920 0.011892
vt 0.280080 0.011892
vt 0.338350 0.026854
vt 0.391068 0.055836
vt 0.434923 0.097018
vt 0.467158 0.147813
vt 0.485749 0.205028
vt 0.489526 0.265070
vt 0.478254 0.324164
vt 0.452639 0.378598
vt 0.414291 0.424952
vt 0.365621 0.460314
vt 0.040000 1.000000
vt 0.040000 0.500000
vt -0.000000 1.000000
vt -0.000000 0.500000
vt 0.750000 0.490000
vt 0.809686 0.482460
vt 0.865621 0.460314
vt 0.914291 0.424952
vt 0.952639 0.378598
vt 0.978254 0.324164
vt 0.989526 0.265070
vt 0.985749 0.205028
vt 0.967158 0.147813
vt 0.934923 0.097018
vt 0.891068 0.055836
vt 0.838350 0.026854
vt 0.780080 0.011892
vt 0.719920 0.011892
vt 0.661650 0.026854
vt 0.608932 0.055836
vt 0.565077 0.097018
vt 0.532842 0.147813
vt 0.514251 0.205028
vt 0.510474 0.265070
vt 0.521746 0.324164
vt 0.547361 0.378598
vt 0.585709 0.424952
vt 0.634379 0.460314
vt 0.690314 0.482460
s 0
usemtl Material.001
f 1/1/1 2/2/1 4/3/1 3/4/1
f 3/4/2 4/3/2 6/5/2 5/6/2
f 5/6/3 6/5/3 8/7/3 7/8/3
f 7/8/4 8/7/4 10/9/4 9/10/4
f 9/10/5 10/9/5 12/11/5 11/12/5
f 11/12/6 12/11/6 14/13/6 13/14/6
f 13/14/7 14/13/7 16/15/7 15/16/7
f 15/16/8 16/15/8 18/17/8 17/18/8
f 17/18/9 18/17/9 20/19/9 19/20/9
f 19/20/10 20/19/10 22/21/10 21/22/10
f 21/22/11 22/21/11 24/23/11 23/24/11
f 23/24/12 24/23/12 26/25/12 25/26/12
f 25/26/13 26/25/13 28/27/13 27/28/13
f 27/28/14 28/27/14 30/29/14 29/30/14
f 29/30/15 30/29/15 32/31/15 31/32/15
f 31/32/16 32/31/16 34/33/16 33/34/16
f 33/34/17 34/33/17 36/35/17 35/36/17
f 35/36/18 36/35/18 38/37/18 37/38/18
f 37/38/19 38/37/19 40/39/19 39/40/19
f 39/40/20 40/39/20 42/41/20 41/42/20
f 41/42/21 42/41/21 44/43/21 43/44/21
f 43/44/22 44/43/22 46/45/22 45/46/22
f 45/46/23 46/45/23 48/47/23 47/48/23
f 4/49/24 2/50/24 50/51/24 48/52/24 46/53/24 44/54/24 42/55/24 40/56/24 38/57/24 36/58/24 34/59/24 32/60/24 30/61/24 28/62/24 26/63/24 24/64/24 22/65/24 20/66/24 18/67/24 16/68/24 14/69/24 12/70/24 10/71/24 8/72/24 6/73/24
f 47/48/25 48/47/25 50/74/25 49/75/25
f 49/75/26 50/74/26 2/76/26 1/77/26
f 1/78/27 3/79/27 5/80/27 7/81/27 9/82/27 11/83/27 13/84/27 15/85/27 17/86/27 19/87/27 21/88/27 23/89/27 25/90/27 27/91/27 29/92/27 31/93/27 33/94/27 35/95/27 37/96/27 39/97/27 41/98/27 43/99/27 45/100/27 47/101/27 49/102/27
o Cylinder.001
v -0.142927 0.100680 -0.987951
v -0.142927 0.241711 -1.363420
v 0.292956 0.139818 -0.949216
v 0.292956 0.280849 -1.324686
v 0.701452 0.254772 -0.835445
v 0.701452 0.395803 -1.210915
v 1.056892 0.438319 -0.653787
v 1.056892 0.579350 -1.029257
v 1.336943 0.678926 -0.415657
v 1.336943 0.819958 -0.791127
v 1.524008 0.961476 -0.136016
v 1.524008 1.102507 -0.511485
v 1.606334 1.268214 0.167565
v 1.606334 1.409245 -0.207905
v 1.578747 1.579867 0.476010
v 1.578747 1.720898 0.100540
v 1.442981 1.876852 0.769938
v 1.442981 2.017884 0.394468
v 1.207566 2.140510 1.030882
v 1.207566 2.281541 0.655412
v 0.887295 2.354272 1.242444
v 0.887295 2.495304 0.866974
v 0.502292 2.504709 1.391332
v 0.502292 2.645741 1.015862
v 0.076747 2.582367 1.468191
v 0.076747 2.723399 1.092721
v -0.362602 2.582367 1.468191
v -0.362602 2.723399 1.092721
v -0.788147 2.504709 1.391332
v -0.788147 2.645741 1.015862
v -1.173150 2.354272 1.242444
v -1.173150 2.495304 0.866974
v -1.493421 2.140510 1.030882
v -1.493421 2.281541 0.655412
v -1.728836 1.876852 0.769938
v -1.728836 2.017884 0.394468
v -1.864602 1.579867 0.476010
v -1.864602 1.720898 0.100540
v -1.892189 1.268214 0.167565
v -1.892189 1.409245 -0.207905
v -1.809863 0.961476 -0.136016
v -1.809863 1.102507 -0.511485
v -1.622798 0.678926 -0.415657
v -1.622798 0.819958 -0.791127
v -1.342747 0.438319 -0.653787
v -1.342747 0.579350 -1.029257
v -0.987307 0.254772 -0.835445
v -0.987307 0.395803 -1.210915
v -0.578811 0.139818 -0.949216
v -0.578811 0.280849 -1.324686
vn 0.1145 -0.9300 -0.3493
vn 0.3399 -0.8804 -0.3307
vn 0.5527 -0.7802 -0.2930
vn 0.7409 -0.6287 -0.2361
vn 0.8888 -0.4290 -0.1611
vn 0.9788 -0.1915 -0.0719
vn 0.9976 0.0644 0.0242
vn 0.9421 0.3140 0.1179
vn 0.8210 0.5344 0.2007
vn 0.6508 0.7108 0.2670
vn 0.4485 0.8367 0.3143
vn 0.2282 0.9114 0.3424
vn -0.0000 0.9361 0.3516
vn -0.2282 0.9114 0.3424
vn -0.4485 0.8367 0.3143
vn -0.6508 0.7108 0.2670
vn -0.8210 0.5344 0.2007
vn -0.9421 0.3140 0.1179
vn -0.9976 0.0644 0.0242
vn -0.9788 -0.1915 -0.0719
vn -0.8888 -0.4290 -0.1611
vn -0.7409 -0.6287 -0.2361
vn -0.5527 -0.7802 -0.2930
vn -0.0000 0.7034 -0.7108
vn -0.3399 -0.8804 -0.3307
vn -0.1145 -0.9300 -0.3493
vn -0.0000 -0.7034 0.7108
vt 1.000000 0.500000
vt 1.000000 1.000000
vt 0.960000 1.000000
vt 0.960000 0.500000
vt 0.920000 1.000000
vt 0.920000 0.500000
vt 0.880000 1.000000
vt 0.880000 0.500000
vt 0.840000 1.000000
vt 0.840000 0.500000
vt 0.800000 1.000000
vt 0.800000 0.500000
vt 0.760000 1.000000
vt 0.760000 0.500000
vt 0.720000 1.000000
vt 0.720000 0.500000
vt 0.680000 1.000000
vt 0.680000 0.500000
vt 0.640000 1.000000
vt 0.640000 0.500000
vt 0.600000 1.000000
vt 0.600000 0.500000
vt 0.560000 1.000000
vt 0.560000 0.500000
vt 0.520000 1.000000
vt 0.520000 0.500000
vt 0.480000 1.000000
vt 0.480000 0.500000
vt 0.440000 1.000000
vt 0.440000 0.500000
vt 0.400000 1.000000
vt 0.400000 0.500000
vt 0.360000 1.000000
vt 0.360000 0.500000
vt 0.320000 1.000000
vt 0.320000 0.500000
vt 0.280000 1.000000
vt 0.280000 0.500000
vt 0.240000 1.000000
vt 0.240000 0.500000
vt 0.200000 1.000000
vt 0.200000 0.500000
vt 0.160000 1.000000
vt 0.160000 0.500000
vt 0.120000 1.000000
vt 0.120000 0.500000
vt 0.080000 1.000000
vt 0.080000 0.500000
vt 0.309686 0.482460
vt 0.250000 0.490000
vt 0.190314 0.482460
vt 0.134379 0.460314
vt 0.085709 0.424952
vt 0.047361 0.378598
vt 0.021746 0.324164
vt 0.010474 0.265070
vt 0.014251 0.205028
vt 0.032842 0.147813
vt 0.065077 0.097018
vt 0.108932 0.055836
vt 0.161650 0.026854
vt 0.219920 0.011892
vt 0.280080 0.011892
vt 0.338350 0.026854
vt 0.391068 0.055836
vt 0.434923 0.097018
vt 0.467158 0.147813
vt 0.485749 0.205028
vt 0.489526 0.265070
vt 0.478254 0.324164
vt 0.452639 0.378598
vt 0.414291 0.424952
vt 0.365621 0.460314
vt 0.040000 1.000000
vt 0.040000 0.500000
vt -0.000000 1.000000
vt -0.000000 0.500000
vt 0.750000 0.490000
vt 0.809686 0.482460
vt 0.865621 0.460314
vt 0.914291 0.424952
vt 0.952639 0.378598
vt 0.978254 0.324164
vt 0.989526 0.265070
vt 0.985749 0.205028
vt 0.967158 0.147813
vt 0.934923 0.097018
vt 0.891068 0.055836
vt 0.838350 0.026854
vt 0.780080 0.011892
vt 0.719920 0.011892
vt 0.661650 0.026854
vt 0.608932 0.055836
vt 0.565077 0.097018
vt 0.532842 0.147813
vt 0.514251 0.205028
vt 0.510474 0.265070
vt 0.521746 0.324164
vt 0.547361 0.378598
vt 0.585709 0.424952
vt 0.634379 0.460314
vt 0.690314 0.482460
s 0
usemtl Material.002
f 51/103/28 52/104/28 54/105/28 53/106/28
f 53/106/29 54/105/29 56/107/29 55/108/29
f 55/108/30 56/107/30 58/109/30 57/110/30
f 57/110/31 58/109/31 60/111/31 59/112/31
f 59/112/32 60/111/32 62/113/32 61/114/32
f 61/114/33 62/113/33 64/115/33 63/116/33
f 63/116/34 64/115/34 66/117/34 65/118/34
f 65/118/35 66/117/35 68/119/35 67/120/35
f 67/120/36 68/119/36 70/121/36 69/122/36
f 69/122/37 70/121/37 72/123/37 71/124/37
f 71/124/38 72/123/38 74/125/38 73/126/38
f 73/126/39 74/125/39 76/127/39 75/128/39
f 75/128/40 76/127/40 78/129/40 77/130/40
f 77/130/41 78/129/41 80/131/41 79/132/41
f 79/132/42 80/131/42 82/133/42 81/134/42
f 81/134/43 82/133/43 84/135/43 83/136/43
f 83/136/44 84/135/44 86/137/44 85/138/44
f 85/138/45 86/137/45 88/139/45 87/140/45
f 87/140/46 88/139/46 90/141/46 89/142/46
f 89/142/47 90/141/47 92/143/47 91/144/47
f 91/144/48 92/143/48 94/145/48 93/146/48
f 93/146/49 94/145/49 96/147/49 95/148/49
f 95/148/50 96/147/50 98/149/50 97/150/50
f 54/151/51 52/152/51 100/153/51 98/154/51 96/155/51 94/156/51 92/157/51 90/158/51 88/159/51 86/160/51 84/161/51 82/162/51 80/163/51 78/164/51 76/165/51 74/166/51 72/167/51 70/168/51 68/169/51 66/170/51 64/171/51 62/172/51 60/173/51 58/174/51 56/175/51
f 97/150/52 98/149/52 100/176/52 99/177/52
f 99/177/53 100/176/53 52/178/53 51/179/53
f 51/180/54 53/181/54 55/182/54 57/183/54 59/184/54 61/185/54 63/186/54 65/187/54 67/188/54 69/189/54 71/190/54 73/191/54 75/192/54 77/193/54 79/194/54 81/195/54 83/196/54 85/197/54 87/198/54 89/199/54 91/200/54 93/201/54 95/202/54 97/203/54 99/204/54
